# xmcd
#
# Track frame offsets: 
#        150
#        15231
#        27456
#        40069
#        58314
#        72002
#        95093
#        107168
#        121611
#        144113
#        159488
#        168263
#        179438
#        192713
#
# Disc length: 2775 seconds
#
# Revision: 0
# Processed by: cddbd v1.5.2PL0 Copyright (c) Steve Scherf et al.
# Submitted via: ExactAudioCopy v0.95a5
#
DISCID=b80ad50e
DTITLE=Серебряная свадьба - Laterna Magica
DYEAR=2012
DGENRE=Pop
TTITLE0=Декаданс
TTITLE1=Schreib Mir
TTITLE2=Пакетики танцуют
TTITLE3=Врозь
TTITLE4=Я - луна
TTITLE5=Пищевая цепочка
TTITLE6=Старая падла
TTITLE7=Я жизь люблю
TTITLE8=L'amour Putain
TTITLE9=Грусть до предела
TTITLE10=Шалашик
TTITLE11=Я так не люблю тебя
TTITLE12=Привет-пока
TTITLE13=Чёрная речка
EXTD=
EXTT0=
EXTT1=
EXTT2=
EXTT3=
EXTT4=
EXTT5=
EXTT6=
EXTT7=
EXTT8=
EXTT9=
EXTT10=
EXTT11=
EXTT12=
EXTT13=
PLAYORDER=
